<?xml version="1.0" encoding="utf-8"?>
<!-- Generator: Adobe Illustrator 17.1.0, SVG Export Plug-In . SVG Version: 6.00 Build 0)  -->
<!DOCTYPE svg PUBLIC "-//W3C//DTD SVG 1.1//EN" "http://www.w3.org/Graphics/SVG/1.1/DTD/svg11.dtd">
<svg version="1.1" xmlns="http://www.w3.org/2000/svg" xmlns:xlink="http://www.w3.org/1999/xlink" x="0px" y="0px"
	 viewBox="0 0 96.865 15.126" enable-background="new 0 0 96.865 15.126" xml:space="preserve">
<g id="top" display="none">
	<path display="inline" fill="#FF7163" d="M48.432,9.468c-0.782,0-1.418-0.636-1.418-1.418s0.636-1.418,1.418-1.418
		S49.85,7.268,49.85,8.05S49.213,9.468,48.432,9.468z M45.392-0.949c1.675-0.39,2.536,1.844,2.572,1.939
		c0.003,0.008,0.012,0.012,0.016,0.02c0.037,0.084,0.09,0.155,0.162,0.207c0.007,0.005,0.015,0.007,0.023,0.013
		c0.079,0.05,0.168,0.084,0.267,0.084c0.099,0,0.188-0.034,0.267-0.084c0.008-0.005,0.016-0.007,0.023-0.013
		c0.072-0.052,0.125-0.124,0.162-0.207c0.004-0.008,0.013-0.012,0.016-0.02c0.036-0.096,0.906-2.333,2.572-1.939
		c0.266,0.06,0.538-0.103,0.602-0.372c0.063-0.269-0.104-0.538-0.372-0.602c-0.957-0.225-1.752,0.092-2.368,0.603
		c0.15-1.16,0.188-2.389-0.219-2.905c-0.343-0.434-1.021-0.434-1.363,0c-0.408,0.516-0.37,1.745-0.219,2.905
		c-0.616-0.511-1.411-0.828-2.368-0.603c-0.269,0.064-0.435,0.333-0.372,0.602C44.854-1.052,45.125-0.889,45.392-0.949z
		 M54.541,7.55h41.824c0.276,0,0.5-0.224,0.5-0.5s-0.224-0.5-0.5-0.5H54.541c-1.968,0-2.822-0.458-3.562-1.198
		c-1.058-1.059-1.058-2.781,0-3.839C51.309,1.182,51.749,1,52.216,1c0.497,0.037,0.907,0.182,1.237,0.513
		c0.419,0.419,0.419,1.101,0,1.521c-0.234,0.234-0.615,0.234-0.85,0c-0.195-0.195-0.512-0.195-0.707,0
		c-0.195,0.195-0.195,0.512,0,0.707c0.624,0.624,1.64,0.624,2.264,0c0.809-0.809,0.809-2.125,0-2.934
		C53.643,0.287,52.953,0.001,52.218,0c0,0-0.001,0-0.002,0c-0.734,0-1.425,0.286-1.945,0.806c-1.447,1.448-1.447,3.804,0,5.253
		C51.346,7.132,52.543,7.55,54.541,7.55z M0.5,7.55h41.824c1.998,0,3.195-0.418,4.27-1.491c1.446-1.449,1.446-3.805,0-5.253
		C46.074,0.286,45.384,0,44.649,0c0,0-0.002,0-0.002,0c-0.735,0.001-1.425,0.287-1.942,0.806c-0.809,0.809-0.809,2.125,0,2.934
		c0.624,0.624,1.64,0.624,2.264,0c0.195-0.195,0.195-0.512,0-0.707c-0.195-0.195-0.512-0.195-0.707,0
		c-0.234,0.234-0.615,0.234-0.85,0c-0.419-0.419-0.419-1.101,0-1.521C43.742,1.182,44.181,1,44.647,1c0.001,0,0.001,0,0.002,0
		c0.467,0,0.907,0.182,1.238,0.513c1.057,1.058,1.057,2.78,0,3.839c-0.741,0.74-1.595,1.198-3.562,1.198H0.5
		C0.224,6.55,0,6.773,0,7.05S0.224,7.55,0.5,7.55z M52.075,17.31c-0.063-0.269-0.334-0.434-0.602-0.372
		c-1.67,0.399-2.536-1.843-2.572-1.939c-0.004-0.011-0.016-0.014-0.02-0.023c-0.035-0.07-0.082-0.13-0.146-0.17
		c-0.034-0.023-0.069-0.033-0.108-0.047c-0.027-0.009-0.053-0.016-0.081-0.021c-0.077-0.016-0.148-0.016-0.226,0
		c-0.028,0.005-0.054,0.012-0.081,0.021c-0.039,0.014-0.074,0.024-0.108,0.047c-0.064,0.04-0.111,0.1-0.146,0.17
		c-0.004,0.01-0.016,0.013-0.02,0.023c-0.036,0.096-0.903,2.335-2.572,1.939c-0.269-0.062-0.538,0.103-0.602,0.372
		c-0.063,0.269,0.104,0.538,0.372,0.601c0.958,0.225,1.752-0.092,2.368-0.603c-0.15,1.16-0.189,2.389,0.219,2.905
		c0.171,0.217,0.414,0.336,0.682,0.336c0.268,0,0.51-0.119,0.682-0.336c0.409-0.517,0.369-1.75,0.218-2.913
		c0.479,0.399,1.064,0.684,1.752,0.684c0.197,0,0.403-0.023,0.617-0.073C51.971,17.848,52.138,17.579,52.075,17.31z M102.068,8.439
		H54.541c-1.998,0-3.195,0.418-4.27,1.491c-1.447,1.448-1.447,3.805,0,5.253c0.52,0.519,1.21,0.806,1.945,0.806c0,0,0.001,0,0.002,0
		c0.734,0,1.424-0.287,1.942-0.806c0.809-0.809,0.809-2.126,0-2.934c-0.604-0.606-1.66-0.606-2.265,0
		c-0.195,0.195-0.195,0.512,0.001,0.707c0.195,0.194,0.512,0.195,0.707-0.001c0.227-0.227,0.622-0.227,0.849,0.001
		c0.203,0.203,0.315,0.473,0.315,0.76s-0.112,0.557-0.315,0.761c-0.329,0.33-0.768,0.512-1.235,0.512h-0.001
		c-0.467,0-0.907-0.182-1.238-0.513c-1.058-1.058-1.058-2.781,0-3.839c0.741-0.74,1.595-1.198,3.562-1.198h47.527
		c0.276,0,0.5-0.224,0.5-0.5C102.568,8.663,102.345,8.439,102.068,8.439z M45.887,10.638c1.058,1.058,1.058,2.781,0,3.839
		c-0.331,0.331-0.77,0.513-1.238,0.513c0,0-0.001,0-0.002,0c-0.467,0-0.906-0.182-1.235-0.513c-0.203-0.203-0.315-0.473-0.315-0.76
		s0.112-0.557,0.315-0.761c0.227-0.227,0.622-0.227,0.849,0c0.195,0.196,0.512,0.195,0.707,0.001
		c0.196-0.195,0.196-0.512,0.001-0.707c-0.604-0.606-1.661-0.606-2.264-0.001c-0.809,0.809-0.809,2.126,0,2.934
		c0.518,0.519,1.208,0.806,1.942,0.806c0,0,0.001,0,0.002,0c0.734,0,1.425-0.286,1.945-0.806c1.447-1.448,1.447-3.805,0-5.253
		c-1.074-1.073-2.271-1.491-4.269-1.491H-5.203c-0.276,0-0.5,0.224-0.5,0.5c0,0.276,0.224,0.5,0.5,0.5h47.527
		C44.292,9.439,45.146,9.898,45.887,10.638z"/>
</g>
<g id="bottom">
	<path fill="#FF7163" d="M47.016,2.527c0-0.782,0.636-1.418,1.418-1.418s1.418,0.636,1.418,1.418s-0.636,1.418-1.418,1.418
		S47.016,3.309,47.016,2.527z M45.394,11.525c-0.266-0.06-0.538,0.104-0.602,0.372c-0.063,0.269,0.104,0.538,0.372,0.602
		c0.957,0.226,1.752-0.092,2.368-0.603c-0.15,1.161-0.188,2.389,0.219,2.905c0.343,0.434,1.021,0.434,1.363,0
		c0.408-0.516,0.37-1.745,0.219-2.905c0.616,0.511,1.411,0.828,2.368,0.603c0.269-0.064,0.435-0.333,0.372-0.602
		c-0.063-0.268-0.334-0.432-0.601-0.372c-1.675,0.395-2.536-1.844-2.572-1.939c-0.003-0.008-0.012-0.012-0.016-0.02
		c-0.037-0.084-0.09-0.155-0.162-0.207c-0.007-0.005-0.015-0.007-0.023-0.013c-0.079-0.05-0.168-0.084-0.267-0.084
		c-0.099,0-0.188,0.034-0.267,0.084c-0.008,0.005-0.016,0.007-0.023,0.013c-0.072,0.052-0.126,0.124-0.162,0.207
		c-0.003,0.008-0.013,0.012-0.016,0.02C47.93,9.681,47.06,11.918,45.394,11.525z M0.5,4.027h41.824c1.968,0,2.822,0.458,3.562,1.198
		c1.058,1.058,1.058,2.781,0,3.839c-0.33,0.331-0.77,0.513-1.238,0.513h-0.001c-0.467,0-0.906-0.182-1.235-0.513
		c-0.419-0.419-0.419-1.101,0-1.521c0.227-0.227,0.622-0.227,0.849,0c0.195,0.196,0.512,0.195,0.707,0.001
		c0.196-0.195,0.196-0.512,0.001-0.707c-0.604-0.606-1.661-0.606-2.264,0c-0.809,0.809-0.809,2.126,0,2.934
		c0.518,0.52,1.208,0.806,1.942,0.806c0,0,0.001,0,0.002,0c0.734,0,1.425-0.286,1.945-0.806c1.447-1.448,1.447-3.805,0-5.253
		c-1.074-1.073-2.271-1.491-4.27-1.491H0.5c-0.276,0-0.5,0.224-0.5,0.5S0.224,4.027,0.5,4.027z M50.271,4.518
		c-1.447,1.448-1.447,3.805,0,5.253c0.52,0.52,1.21,0.806,1.945,0.806c0,0,0.002,0,0.002,0c0.735,0,1.425-0.287,1.942-0.806
		c0.809-0.809,0.809-2.126,0.001-2.934c-0.604-0.606-1.66-0.606-2.265,0c-0.195,0.195-0.195,0.512,0.001,0.707
		c0.195,0.194,0.512,0.195,0.707-0.001c0.227-0.227,0.622-0.227,0.849,0c0.419,0.419,0.419,1.101,0,1.521
		c-0.329,0.33-0.768,0.512-1.235,0.512c0,0-0.001,0-0.002,0c-0.467,0-0.907-0.182-1.238-0.513c-1.058-1.058-1.058-2.781,0-3.839
		c0.741-0.74,1.595-1.198,3.562-1.198h41.824c0.276,0,0.5-0.224,0.5-0.5s-0.224-0.5-0.5-0.5H54.541
		C52.543,3.027,51.346,3.445,50.271,4.518z M4.642,1.874l40.1-0.001c0.276,0,0.5-0.224,0.5-0.5c0-0.276-0.224-0.5-0.5-0.5
		l-40.1,0.001c-0.276,0-0.5,0.224-0.5,0.5C4.142,1.651,4.365,1.874,4.642,1.874z M51.627,1.374c0,0.276,0.224,0.5,0.5,0.5
		l40.101,0.001c0.276,0,0.5-0.224,0.5-0.5c0-0.276-0.224-0.5-0.5-0.5L52.127,0.874C51.851,0.874,51.627,1.097,51.627,1.374z"/>
</g>
</svg>
