<?xml version="1.0" encoding="utf-8"?>
<!-- Generator: Adobe Illustrator 17.1.0, SVG Export Plug-In . SVG Version: 6.00 Build 0)  -->
<!DOCTYPE svg PUBLIC "-//W3C//DTD SVG 1.1//EN" "http://www.w3.org/Graphics/SVG/1.1/DTD/svg11.dtd">
<svg version="1.1" xmlns="http://www.w3.org/2000/svg" xmlns:xlink="http://www.w3.org/1999/xlink" x="0px" y="0px"
	 viewBox="0 0 110 25.716" enable-background="new 0 0 110 25.716" xml:space="preserve">
<g id="top">
	<path fill="#FF7163" d="M54.999,14.634c-0.782,0-1.418-0.636-1.418-1.418s0.636-1.418,1.418-1.418s1.418,0.636,1.418,1.418
		S55.781,14.634,54.999,14.634z M51.959,4.218c1.675-0.39,2.536,1.844,2.572,1.939c0.003,0.008,0.012,0.012,0.016,0.02
		c0.037,0.083,0.09,0.155,0.162,0.207c0.007,0.005,0.015,0.007,0.023,0.013c0.079,0.05,0.168,0.084,0.267,0.084
		c0.099,0,0.188-0.034,0.267-0.084c0.008-0.005,0.016-0.007,0.023-0.013c0.072-0.052,0.125-0.124,0.162-0.207
		c0.004-0.008,0.013-0.012,0.016-0.02c0.036-0.096,0.906-2.334,2.572-1.939c0.266,0.06,0.538-0.103,0.602-0.372
		c0.063-0.269-0.104-0.538-0.372-0.602C57.311,3.02,56.516,3.336,55.9,3.847c0.15-1.16,0.188-2.389-0.219-2.905
		c-0.343-0.434-1.021-0.434-1.363,0c-0.408,0.516-0.37,1.745-0.219,2.905c-0.616-0.511-1.411-0.828-2.368-0.603
		c-0.269,0.063-0.435,0.333-0.372,0.602C51.421,4.114,51.692,4.277,51.959,4.218z M61.108,12.716h41.824c0.276,0,0.5-0.224,0.5-0.5
		c0-0.276-0.224-0.5-0.5-0.5H61.108c-1.968,0-2.822-0.458-3.562-1.198c-1.058-1.059-1.058-2.781,0-3.839
		c0.33-0.331,0.77-0.513,1.238-0.513c0.497,0.037,0.907,0.182,1.237,0.513c0.419,0.419,0.419,1.101,0,1.52
		c-0.234,0.234-0.615,0.234-0.85,0c-0.195-0.195-0.512-0.195-0.707,0c-0.195,0.195-0.195,0.512,0,0.707
		c0.624,0.624,1.64,0.624,2.264,0c0.809-0.809,0.809-2.125,0-2.934c-0.518-0.52-1.208-0.806-1.942-0.806c0,0-0.001,0-0.002,0
		c-0.734,0-1.425,0.286-1.945,0.806c-1.447,1.448-1.447,3.804,0,5.253C57.913,12.298,59.11,12.716,61.108,12.716z M7.067,12.716
		h41.824c1.998,0,3.195-0.418,4.27-1.491c1.446-1.449,1.446-3.805,0-5.253c-0.519-0.52-1.21-0.806-1.945-0.806c0,0-0.002,0-0.002,0
		c-0.735,0.001-1.425,0.287-1.942,0.806c-0.809,0.809-0.809,2.126,0,2.935c0.624,0.624,1.64,0.624,2.264,0
		c0.195-0.195,0.195-0.512,0-0.707c-0.195-0.195-0.512-0.195-0.707,0c-0.234,0.234-0.615,0.234-0.85,0
		c-0.419-0.419-0.419-1.101,0-1.521c0.329-0.33,0.768-0.512,1.235-0.512c0.001,0,0.001,0,0.002,0c0.467,0,0.907,0.182,1.238,0.513
		c1.057,1.058,1.057,2.78,0,3.839c-0.741,0.74-1.595,1.198-3.562,1.198H7.067c-0.276,0-0.5,0.224-0.5,0.5
		C6.567,12.493,6.791,12.716,7.067,12.716z M58.642,22.477c-0.063-0.269-0.334-0.434-0.602-0.372
		c-1.67,0.399-2.536-1.843-2.572-1.939c-0.004-0.011-0.016-0.014-0.02-0.023c-0.035-0.07-0.082-0.13-0.146-0.17
		c-0.034-0.023-0.069-0.033-0.108-0.047c-0.027-0.009-0.053-0.016-0.081-0.021c-0.077-0.016-0.148-0.016-0.226,0
		c-0.028,0.005-0.054,0.012-0.081,0.021c-0.039,0.014-0.074,0.024-0.108,0.047c-0.064,0.041-0.111,0.1-0.146,0.17
		c-0.004,0.01-0.016,0.013-0.02,0.023c-0.036,0.096-0.903,2.334-2.572,1.939c-0.269-0.062-0.538,0.103-0.602,0.372
		c-0.063,0.269,0.104,0.538,0.372,0.601c0.958,0.225,1.752-0.092,2.368-0.602c-0.15,1.16-0.189,2.389,0.219,2.905
		c0.171,0.217,0.414,0.336,0.682,0.336c0.268,0,0.51-0.119,0.682-0.336c0.409-0.517,0.369-1.751,0.218-2.913
		c0.479,0.399,1.064,0.684,1.752,0.684c0.197,0,0.403-0.023,0.617-0.073C58.539,23.015,58.705,22.746,58.642,22.477z
		 M108.636,13.606H61.108c-1.998,0-3.195,0.418-4.27,1.491c-1.447,1.448-1.447,3.805,0,5.253c0.52,0.519,1.21,0.806,1.945,0.806
		c0,0,0.001,0,0.002,0c0.734,0,1.424-0.287,1.942-0.806c0.809-0.809,0.809-2.126,0-2.934c-0.604-0.606-1.66-0.606-2.265,0
		c-0.195,0.195-0.195,0.512,0.001,0.707c0.195,0.194,0.512,0.195,0.707-0.001c0.227-0.227,0.622-0.227,0.849,0
		c0.203,0.203,0.315,0.473,0.315,0.76s-0.112,0.557-0.315,0.761c-0.329,0.33-0.768,0.512-1.235,0.512h-0.001
		c-0.467,0-0.907-0.182-1.238-0.513c-1.058-1.058-1.058-2.781,0-3.839c0.741-0.74,1.595-1.198,3.562-1.198h47.527
		c0.276,0,0.5-0.224,0.5-0.5C109.136,13.83,108.912,13.606,108.636,13.606z M52.454,15.804c1.058,1.058,1.058,2.781,0,3.839
		c-0.331,0.33-0.771,0.513-1.238,0.513c0,0-0.001,0-0.002,0c-0.467,0-0.906-0.182-1.235-0.513c-0.203-0.203-0.315-0.473-0.315-0.76
		s0.112-0.557,0.315-0.761c0.227-0.227,0.622-0.227,0.849,0c0.195,0.196,0.512,0.195,0.707,0.001
		c0.196-0.195,0.196-0.512,0.001-0.707c-0.604-0.606-1.661-0.606-2.264,0c-0.809,0.809-0.809,2.125,0,2.934
		c0.518,0.52,1.208,0.806,1.942,0.806c0,0,0.001,0,0.002,0c0.734,0,1.425-0.286,1.945-0.806c1.447-1.448,1.447-3.805,0-5.253
		c-1.074-1.073-2.271-1.491-4.269-1.491H1.364c-0.276,0-0.5,0.224-0.5,0.5c0,0.276,0.224,0.5,0.5,0.5h47.527
		C50.859,14.606,51.713,15.065,52.454,15.804z"/>
</g>
<g id="bottom" display="none">
	<path display="inline" fill="#FF7163" d="M53.583,7.694c0-0.782,0.636-1.418,1.418-1.418s1.418,0.636,1.418,1.418
		s-0.636,1.418-1.418,1.418S53.583,8.475,53.583,7.694z M51.962,16.692c-0.266-0.06-0.538,0.104-0.602,0.372
		c-0.063,0.269,0.104,0.538,0.372,0.602c0.957,0.226,1.752-0.092,2.368-0.603c-0.15,1.161-0.188,2.389,0.219,2.905
		c0.343,0.434,1.021,0.434,1.363,0c0.408-0.516,0.37-1.745,0.219-2.905c0.616,0.511,1.411,0.828,2.368,0.603
		c0.269-0.063,0.435-0.333,0.372-0.602c-0.063-0.268-0.334-0.432-0.601-0.372c-1.675,0.395-2.536-1.844-2.572-1.939
		c-0.003-0.008-0.012-0.012-0.016-0.02c-0.037-0.083-0.09-0.155-0.162-0.207c-0.007-0.005-0.015-0.007-0.023-0.013
		c-0.079-0.05-0.168-0.084-0.267-0.084c-0.099,0-0.188,0.034-0.267,0.084c-0.008,0.005-0.016,0.007-0.023,0.013
		c-0.072,0.052-0.125,0.124-0.162,0.207c-0.003,0.008-0.013,0.012-0.016,0.02C54.497,14.848,53.628,17.085,51.962,16.692z
		 M7.067,9.194h41.824c1.968,0,2.822,0.458,3.562,1.198c1.058,1.058,1.058,2.781,0,3.839c-0.33,0.331-0.77,0.513-1.238,0.513h-0.001
		c-0.467,0-0.906-0.182-1.235-0.513c-0.419-0.419-0.419-1.101,0-1.521c0.227-0.227,0.622-0.227,0.849,0
		c0.195,0.196,0.512,0.195,0.707,0.001c0.196-0.195,0.196-0.512,0.001-0.707c-0.604-0.606-1.661-0.606-2.264,0
		c-0.809,0.809-0.809,2.125,0,2.934c0.518,0.52,1.208,0.806,1.942,0.806c0,0,0.001,0,0.002,0c0.734,0,1.425-0.286,1.945-0.806
		c1.447-1.448,1.447-3.805,0-5.253c-1.074-1.073-2.271-1.491-4.27-1.491H7.067c-0.276,0-0.5,0.224-0.5,0.5S6.791,9.194,7.067,9.194z
		 M56.839,9.685c-1.447,1.448-1.447,3.805,0,5.253c0.52,0.52,1.21,0.806,1.945,0.806c0,0,0.002,0,0.002,0
		c0.735,0,1.425-0.287,1.942-0.806c0.809-0.809,0.809-2.125,0.001-2.934c-0.604-0.606-1.66-0.606-2.265,0
		c-0.195,0.195-0.195,0.512,0.001,0.707c0.195,0.194,0.512,0.195,0.707-0.001c0.227-0.227,0.622-0.227,0.849,0
		c0.419,0.419,0.419,1.101,0,1.521c-0.329,0.33-0.768,0.512-1.235,0.512c0,0-0.001,0-0.002,0c-0.467,0-0.907-0.182-1.238-0.513
		c-1.058-1.058-1.058-2.781,0-3.839c0.741-0.74,1.595-1.198,3.562-1.198h41.824c0.276,0,0.5-0.224,0.5-0.5s-0.224-0.5-0.5-0.5
		H61.108C59.11,8.194,57.913,8.612,56.839,9.685z M11.209,7.041l40.1-0.001c0.276,0,0.5-0.224,0.5-0.5c0-0.276-0.224-0.5-0.5-0.5
		l-40.1,0.001c-0.276,0-0.5,0.224-0.5,0.5C10.709,6.818,10.933,7.041,11.209,7.041z M58.194,6.54c0,0.276,0.224,0.5,0.5,0.5
		l40.101,0.001c0.276,0,0.5-0.224,0.5-0.5c0-0.276-0.224-0.5-0.5-0.5L58.694,6.04C58.418,6.04,58.194,6.264,58.194,6.54z"/>
</g>
</svg>
