<?xml version="1.0" encoding="utf-8"?>
<!-- Generator: Adobe Illustrator 17.1.0, SVG Export Plug-In . SVG Version: 6.00 Build 0)  -->
<!DOCTYPE svg PUBLIC "-//W3C//DTD SVG 1.1//EN" "http://www.w3.org/Graphics/SVG/1.1/DTD/svg11.dtd">
<svg version="1.1" id="Layer_1" xmlns="http://www.w3.org/2000/svg" xmlns:xlink="http://www.w3.org/1999/xlink" x="0px" y="0px"
	 viewBox="38 0 24 24" enable-background="new 38 0 24 24" xml:space="preserve">
<g id="pinterest" display="none">
	<g display="inline">
		<g>
			<defs>
				<rect id="SVGID_1_" x="38" width="24" height="24"/>
			</defs>
			<clipPath id="SVGID_2_">
				<use xlink:href="#SVGID_1_"  overflow="visible"/>
			</clipPath>
			<path clip-path="url(#SVGID_2_)" fill="#FFFFFF" d="M50,0c-6.627,0-12,5.373-12,12c0,4.914,2.955,9.135,7.183,10.991
				c-0.034-0.838-0.006-1.844,0.209-2.756c0.231-0.974,1.544-6.539,1.544-6.539s-0.383-0.766-0.383-1.899
				c0-1.778,1.031-3.106,2.314-3.106c1.092,0,1.619,0.82,1.619,1.802c0,1.098-0.7,2.739-1.06,4.259
				c-0.3,1.273,0.638,2.311,1.894,2.311c2.274,0,3.805-2.92,3.805-6.38c0-2.63-1.772-4.599-4.994-4.599
				c-3.64,0-5.908,2.715-5.908,5.747c0,1.046,0.308,1.783,0.791,2.354c0.222,0.262,0.253,0.368,0.172,0.669
				c-0.057,0.221-0.19,0.752-0.244,0.963c-0.08,0.304-0.326,0.412-0.601,0.3c-1.676-0.684-2.458-2.521-2.458-4.584
				c0-3.409,2.875-7.496,8.577-7.496c4.582,0,7.597,3.315,7.597,6.874c0,4.708-2.617,8.224-6.475,8.224
				c-1.296,0-2.514-0.7-2.932-1.496c0,0-0.697,2.765-0.844,3.299c-0.254,0.925-0.752,1.85-1.208,2.57C47.679,23.827,48.819,24,50,24
				c6.627,0,12-5.372,12-12S56.627,0,50,0"/>
		</g>
	</g>
</g>
<g id="twitter" display="none">
	<g display="inline">
		<g>
			<defs>
				<rect id="SVGID_3_" x="38" width="24" height="24"/>
			</defs>
			<clipPath id="SVGID_4_">
				<use xlink:href="#SVGID_3_"  overflow="visible"/>
			</clipPath>
			<path clip-path="url(#SVGID_4_)" fill="#FFFFFF" d="M56.609,8.737c0.006,0.141,0.01,0.282,0.01,0.424
				c0,4.338-3.302,9.34-9.34,9.34c-1.854,0-3.579-0.544-5.032-1.475c0.257,0.03,0.518,0.046,0.783,0.046
				c1.538,0,2.953-0.525,4.077-1.405c-1.436-0.026-2.649-0.976-3.066-2.28c0.2,0.038,0.406,0.059,0.618,0.059
				c0.299,0,0.544-0.04,0.82-0.115c-1.502-0.302-2.678-1.628-2.678-3.219v-0.042c0.48,0.246,0.994,0.394,1.532,0.411
				c-0.881-0.588-1.438-1.593-1.438-2.732c0-0.602,0.173-1.166,0.456-1.65c1.619,1.986,4.043,3.293,6.772,3.43
				c-0.056-0.24-0.082-0.491-0.082-0.748c0-1.813,1.471-3.282,3.284-3.282c0.944,0,1.798,0.398,2.397,1.036
				c0.748-0.147,1.451-0.42,2.085-0.796c-0.245,0.766-0.766,1.41-1.443,1.816c0.664-0.08,1.297-0.256,1.885-0.517
				C57.807,7.696,57.25,8.274,56.609,8.737 M38,24h24V0H38V24z"/>
		</g>
	</g>
</g>
<g id="instagram">
	<g>
		<g>
			<defs>
				<rect id="SVGID_5_" x="38" width="24" height="24"/>
			</defs>
			<clipPath id="SVGID_6_">
				<use xlink:href="#SVGID_5_"  overflow="visible"/>
			</clipPath>
			<path clip-path="url(#SVGID_6_)" fill="#FF7163" d="M56.462,6.462c-0.509,0-0.923-0.414-0.923-0.923V3.692
				c0-0.509,0.414-0.923,0.923-0.923h1.846c0.509,0,0.923,0.414,0.923,0.923v1.846c0,0.509-0.414,0.923-0.923,0.923H56.462z"/>
		</g>
		<g>
			<defs>
				<rect id="SVGID_7_" x="38" width="24" height="24"/>
			</defs>
			<clipPath id="SVGID_8_">
				<use xlink:href="#SVGID_7_"  overflow="visible"/>
			</clipPath>
			<path clip-path="url(#SVGID_8_)" fill="#FF7163" d="M50,8.481c-0.67,0-1.289,0.197-1.821,0.52
				c0.166-0.052,0.339-0.086,0.52-0.086c0.986,0,1.784,0.798,1.784,1.785c0,0.984-0.798,1.784-1.784,1.784
				c-0.986,0-1.784-0.799-1.784-1.784c0-0.184,0.036-0.356,0.087-0.522c-0.325,0.532-0.521,1.151-0.521,1.821
				c0,1.945,1.574,3.52,3.52,3.52c1.943,0,3.52-1.574,3.52-3.52S51.943,8.481,50,8.481"/>
		</g>
		<g>
			<defs>
				<rect id="SVGID_9_" x="38" width="24" height="24"/>
			</defs>
			<clipPath id="SVGID_10_">
				<use xlink:href="#SVGID_9_"  overflow="visible"/>
			</clipPath>
			<path clip-path="url(#SVGID_10_)" fill="#FF7163" d="M50,4.616c-4.072,0-7.385,3.313-7.385,7.384s3.313,7.385,7.385,7.385
				s7.385-3.313,7.385-7.385S54.072,4.616,50,4.616 M50,6.462c3.058,0,5.538,2.479,5.538,5.538S53.057,17.538,50,17.538
				c-3.058,0-5.538-2.479-5.538-5.538S46.942,6.462,50,6.462"/>
		</g>
		<g>
			<defs>
				<rect id="SVGID_11_" x="38" width="24" height="24"/>
			</defs>
			<clipPath id="SVGID_12_">
				<use xlink:href="#SVGID_11_"  overflow="visible"/>
			</clipPath>
			<path clip-path="url(#SVGID_12_)" fill="#FF7163" d="M60.154,8.308H54.12c0.88,0.981,1.419,2.272,1.419,3.692
				c0,3.059-2.481,5.538-5.538,5.538c-3.058,0-5.538-2.479-5.538-5.538c0-1.421,0.539-2.712,1.419-3.692h-6.034V4.5
				c0-1.463,1.191-2.654,2.654-2.654h15c1.464,0,2.654,1.191,2.654,2.654C60.154,4.5,60.154,8.308,60.154,8.308z M57.5,0h-15
				C40.014,0,38,2.014,38,4.5v15c0,2.486,2.014,4.5,4.5,4.5h15c2.486,0,4.5-2.014,4.5-4.5v-15C62,2.014,59.986,0,57.5,0"/>
		</g>
	</g>
</g>
</svg>
