<?xml version="1.0" encoding="utf-8"?>
<!-- Generator: Adobe Illustrator 17.1.0, SVG Export Plug-In . SVG Version: 6.00 Build 0)  -->
<!DOCTYPE svg PUBLIC "-//W3C//DTD SVG 1.1//EN" "http://www.w3.org/Graphics/SVG/1.1/DTD/svg11.dtd">
<svg version="1.1" id="Capa_1" xmlns="http://www.w3.org/2000/svg" xmlns:xlink="http://www.w3.org/1999/xlink" x="0px" y="0px"
	 viewBox="282 372 48 48" enable-background="new 282 372 48 48" xml:space="preserve">
<path fill="#FF7163" d="M322.273,400.364c0-1.59-0.205-2.977-0.614-4.161c-0.409-1.184-0.972-2.165-1.689-2.943
	c-0.716-0.778-1.561-1.353-2.533-1.725s-2.038-0.558-3.198-0.558c-0.921,0-1.723,0.11-2.405,0.33
	c-0.682,0.22-1.271,0.507-1.765,0.863c-0.495,0.355-0.913,0.736-1.254,1.142c-0.341,0.406-0.631,0.778-0.87,1.116v-2.943h-6.959
	c0.034,0.575,0.051,1.691,0.051,3.349v6.292c0,0-0.017,3.738-0.051,11.214h6.959v-11.67c0-0.304,0.017-0.6,0.051-0.888
	c0.034-0.288,0.102-0.55,0.205-0.786c0.273-0.609,0.691-1.184,1.254-1.725c0.563-0.541,1.339-0.812,2.329-0.812
	c1.262,0,2.166,0.431,2.712,1.294c0.546,0.862,0.819,2.004,0.819,3.425v11.163h6.959V400.364z M293.616,388.643
	c1.228,0,2.2-0.355,2.917-1.066c0.716-0.71,1.058-1.556,1.023-2.537c0-1.015-0.35-1.869-1.049-2.562
	c-0.699-0.693-1.646-1.04-2.84-1.04s-2.149,0.347-2.866,1.04c-0.716,0.693-1.075,1.548-1.075,2.562c0,0.981,0.341,1.827,1.023,2.537
	c0.682,0.71,1.62,1.066,2.815,1.066H293.616L293.616,388.643z M297.096,391.484h-6.959v20.854h6.959V391.484z M328.772,372
	c0.341,0,0.631,0.11,0.87,0.33c0.239,0.22,0.358,0.499,0.358,0.837v45.666c0,0.338-0.12,0.617-0.358,0.837
	c-0.239,0.22-0.529,0.33-0.87,0.33h-45.544c-0.341,0-0.631-0.11-0.87-0.33c-0.239-0.22-0.358-0.499-0.358-0.837v-45.666
	c0-0.338,0.119-0.617,0.358-0.837s0.529-0.33,0.87-0.33H328.772L328.772,372z"/>
</svg>
