<?xml version="1.0" encoding="utf-8"?>
<!-- Generator: Adobe Illustrator 17.1.0, SVG Export Plug-In . SVG Version: 6.00 Build 0)  -->
<!DOCTYPE svg PUBLIC "-//W3C//DTD SVG 1.1//EN" "http://www.w3.org/Graphics/SVG/1.1/DTD/svg11.dtd">
<svg version="1.1" id="Layer_1" xmlns="http://www.w3.org/2000/svg" xmlns:xlink="http://www.w3.org/1999/xlink" x="0px" y="0px"
	 viewBox="38.047 0 23.906 24" enable-background="new 38.047 0 23.906 24" xml:space="preserve">
<g>
	<g>
		<defs>
			<rect id="SVGID_1_" x="38" width="24" height="24"/>
		</defs>
		<clipPath id="SVGID_2_">
			<use xlink:href="#SVGID_1_"  overflow="visible"/>
		</clipPath>
		<path clip-path="url(#SVGID_2_)" fill="#FF7163" d="M50,0c-6.627,0-12,5.373-12,12c0,4.914,2.955,9.135,7.183,10.991
			c-0.034-0.838-0.006-1.844,0.209-2.756c0.231-0.974,1.544-6.539,1.544-6.539s-0.383-0.766-0.383-1.899
			c0-1.778,1.031-3.106,2.314-3.106c1.092,0,1.619,0.82,1.619,1.802c0,1.098-0.7,2.739-1.06,4.259
			c-0.3,1.273,0.638,2.311,1.894,2.311c2.274,0,3.805-2.92,3.805-6.38c0-2.63-1.772-4.599-4.994-4.599
			c-3.64,0-5.908,2.715-5.908,5.747c0,1.046,0.308,1.783,0.791,2.354c0.222,0.262,0.253,0.368,0.172,0.669
			c-0.057,0.221-0.19,0.752-0.244,0.963c-0.08,0.304-0.326,0.412-0.601,0.3c-1.676-0.684-2.458-2.521-2.458-4.584
			c0-3.409,2.875-7.496,8.577-7.496c4.582,0,7.597,3.315,7.597,6.874c0,4.708-2.617,8.224-6.475,8.224
			c-1.296,0-2.514-0.7-2.932-1.496c0,0-0.697,2.765-0.844,3.299c-0.254,0.925-0.752,1.85-1.208,2.57C47.679,23.827,48.819,24,50,24
			c6.627,0,12-5.372,12-12S56.627,0,50,0"/>
	</g>
</g>
</svg>
